Coordinates
version=1
nRows=12
nColumns=24
inDegrees=yes

Units are S.I. units (second, meters, Newtons, ...)
Angles are in degrees.

endheader
time	pelvis_tilt	pelvis_list	pelvis_rotation	pelvis_tx	pelvis_ty	pelvis_tz	hip_flexion_r	hip_adduction_r	hip_rotation_r	knee_angle_r	ankle_angle_r	subtalar_angle_r	mtp_angle_r	hip_flexion_l	hip_adduction_l	hip_rotation_l	knee_angle_l	ankle_angle_l	subtalar_angle_l	mtp_angle_l	lumbar_extension	lumbar_bending	lumbar_rotation
      4.04500000	      8.32303373	      8.03046776	      5.88324726	     -0.71803269	      0.75889067	     -0.26147360	     14.49513718	    -11.29555084	     -8.20781372	    -63.55622064	     17.60580181	     -4.66734821	      0.00000000	     -6.43732682	     12.04927857	      7.22390997	    -12.18793384	     23.44834118	      2.95691094	      0.00000000	    -31.87516425	     -3.16259954	     -7.12996689
      4.05000000	      8.38575494	      8.21618395	      6.11186391	     -0.71107847	      0.75882109	     -0.26181041	     15.17000279	    -11.53766564	     -8.15103625	    -62.74909250	     18.04011236	     -4.46694588	      0.00000000	     -7.37915649	     12.08651595	      7.22031967	    -11.69590551	     23.74331846	      3.52688467	      0.00000000	    -32.05842986	     -3.18322677	     -7.68137503
      4.05500000	      8.49209722	      8.38732732	      6.32941691	     -0.70408756	      0.75872893	     -0.26209782	     15.75639355	    -11.75322817	     -8.09014457	    -61.83524819	     18.42977575	     -4.24458933	      0.00000000	     -8.37296031	     12.08877374	      7.16997074	    -11.19515355	     24.07421713	      4.17092267	      0.00000000	    -32.28726152	     -3.19602894	     -8.19183551
      4.06000000	      8.57464762	      8.60477353	      6.55278008	     -0.69710653	      0.75852820	     -0.26238886	     16.34279021	    -12.02426473	     -8.01785545	    -60.85532993	     18.79140574	     -4.12805212	      0.00000000	     -9.33794306	     12.14040663	      7.13419625	    -10.71706739	     24.36511970	      4.74521890	      0.00000000	    -32.49807643	     -3.25322833	     -8.73131252
      4.06500000	      8.65910651	      8.84580353	      6.77508160	     -0.69013367	      0.75825891	     -0.26266553	     16.89610887	    -12.31785103	     -7.92623518	    -59.79398983	     19.11191804	     -4.03054789	      0.00000000	    -10.30306129	     12.21072308	      7.12137988	    -10.25442692	     24.64344557	      5.30620685	      0.00000000	    -32.71615944	     -3.33048318	     -9.28292194
      4.07000000	      8.76425934	      9.08020079	      6.99236826	     -0.68312798	      0.75794721	     -0.26292537	     17.38353161	    -12.60672057	     -7.85551062	    -58.63565599	     19.43653957	     -3.94619492	      0.00000000	    -11.29413547	     12.26161823	      7.06987478	     -9.78860723	     24.93055654	      5.87778047	      0.00000000	    -32.95329380	     -3.40242649	     -9.80683691
      4.07500000	      8.81220677	      9.36730767	      7.21167945	     -0.67614683	      0.75751035	     -0.26316676	     17.90977723	    -12.95127919	     -7.75163577	    -57.41237839	     19.72343822	     -3.96276759	      0.00000000	    -12.21333415	     12.37642715	      7.05964110	     -9.36402901	     25.16087584	      6.33622500	      0.00000000	    -33.13886652	     -3.53737951	    -10.36358807
      4.08000000	      8.96268727	      9.59449492	      7.42723896	     -0.66912232	      0.75713975	     -0.26340265	     18.25656484	    -13.22964025	     -7.69766119	    -56.05310513	     19.99763293	     -3.80447301	      0.00000000	    -13.24744640	     12.39612525	      7.02961841	     -8.92317511	     25.46602712	      6.96917581	      0.00000000	    -33.42331090	     -3.59175610	    -10.84882223
      4.08500000	      9.01544057	      9.88999089	      7.64121786	     -0.66212901	      0.75660325	     -0.26361719	     18.69527480	    -13.58468062	     -7.60583514	    -54.64667386	     20.24950465	     -3.81276781	      0.00000000	    -14.16085251	     12.50616373	      7.00468529	     -8.53516133	     25.68817049	      7.41723873	      0.00000000	    -33.61459928	     -3.73604373	    -11.38784885
      4.09000000	      9.14184886	     10.14291602	      7.86597775	     -0.65510391	      0.75611407	     -0.26382821	     18.98191362	    -13.89537293	     -7.57075832	    -53.11277601	     20.50036459	     -3.66114259	      0.00000000	    -15.15428275	     12.54092014	      6.99585040	     -8.14509708	     25.96063007	      7.99859418	      0.00000000	    -33.87839827	     -3.81680258	    -11.88215957
      4.09500000	      9.20052037	     10.42074618	      8.08116190	     -0.64808251	      0.75550739	     -0.26402692	     19.31467834	    -14.23341695	     -7.51571070	    -51.50945960	     20.73045639	     -3.58004856	      0.00000000	    -16.05906794	     12.61701316	      6.97680768	     -7.79715254	     26.18621675	      8.45901072	      0.00000000	    -34.06878213	     -3.93942930	    -12.37433915
      4.10000000	      9.28211491	     10.68218018	      8.30735688	     -0.64104946	      0.75490004	     -0.26422842	     19.55961142	    -14.56141592	     -7.51265991	    -49.79881606	     20.95648804	     -3.39069862	      0.00000000	    -16.97604912	     12.65943826	      6.97601499	     -7.47935340	     26.42784650	      8.96797182	      0.00000000	    -34.27916541	     -4.03241204	    -12.85464489
